<?xml version="1.0" encoding="iso-8859-1"?>
<!-- Generator: Adobe Illustrator 19.0.0, SVG Export Plug-In . SVG Version: 6.00 Build 0)  -->
<svg version="1.1" id="Capa_1" xmlns="http://www.w3.org/2000/svg" xmlns:xlink="http://www.w3.org/1999/xlink" x="0px" y="0px"
	 viewBox="0 0 512 512" style="enable-background:new 0 0 512 512;" xml:space="preserve">
<rect x="7.5" y="318.1" style="fill:#595959;" width="497" height="49.905"/>
<rect x="474.5" y="318.1" style="fill:#464646;" width="30" height="49.905"/>
<rect x="7.5" y="170.49" style="fill:#FF803C;" width="497" height="147.61"/>
<polygon style="fill:#F76328;" points="33.605,291.608 478.395,291.608 504.5,318.095 7.5,318.095 "/>
<rect x="33.605" y="144" style="fill:#FF803C;" width="444.79" height="147.61"/>
<polygon style="fill:#F76328;" points="7.5,170.487 33.605,144 33.605,291.608 7.5,318.095 "/>
<polygon style="fill:#B44F02;" points="478.395,291.608 504.5,318.095 504.5,170.487 478.395,144 "/>
<path style="fill:#FFDEA9;" d="M312,231.048H200c-2.209,0-4-1.791-4-4v-28c0-2.209,1.791-4,4-4h112c2.209,0,4,1.791,4,4v28
	C316,229.257,314.209,231.048,312,231.048z"/>
<path style="fill:#FFBF7B;" d="M312,195.048h-30c2.209,0,4,1.791,4,4v28c0,2.209-1.791,4-4,4h30c2.209,0,4-1.791,4-4v-28
	C316,196.838,314.209,195.048,312,195.048z"/>
<path d="M48,350.548h38c4.142,0,7.5-3.358,7.5-7.5s-3.358-7.5-7.5-7.5H48c-4.142,0-7.5,3.358-7.5,7.5S43.858,350.548,48,350.548z"/>
<path d="M111,350.548h38c4.142,0,7.5-3.358,7.5-7.5s-3.358-7.5-7.5-7.5h-38c-4.142,0-7.5,3.358-7.5,7.5S106.858,350.548,111,350.548
	z"/>
<path d="M174,350.548h38c4.142,0,7.5-3.358,7.5-7.5s-3.358-7.5-7.5-7.5h-38c-4.142,0-7.5,3.358-7.5,7.5S169.858,350.548,174,350.548
	z"/>
<path d="M237,350.548h38c4.143,0,7.5-3.358,7.5-7.5s-3.357-7.5-7.5-7.5h-38c-4.142,0-7.5,3.358-7.5,7.5S232.858,350.548,237,350.548
	z"/>
<path d="M300,350.548h38c4.143,0,7.5-3.358,7.5-7.5s-3.357-7.5-7.5-7.5h-38c-4.143,0-7.5,3.358-7.5,7.5S295.857,350.548,300,350.548
	z"/>
<path d="M363,350.548h38c4.143,0,7.5-3.358,7.5-7.5s-3.357-7.5-7.5-7.5h-38c-4.143,0-7.5,3.358-7.5,7.5S358.857,350.548,363,350.548
	z"/>
<path d="M426,350.548h38c4.143,0,7.5-3.358,7.5-7.5s-3.357-7.5-7.5-7.5h-38c-4.143,0-7.5,3.358-7.5,7.5S421.857,350.548,426,350.548
	z"/>
<path d="M509.842,165.222l-26.105-26.487c-0.005-0.005-0.011-0.009-0.016-0.014c-0.234-0.236-0.486-0.451-0.749-0.654
	c-0.06-0.047-0.121-0.091-0.182-0.136c-0.268-0.194-0.544-0.377-0.837-0.535c-0.001,0-0.002-0.001-0.003-0.001
	c-0.288-0.156-0.591-0.286-0.901-0.403c-0.065-0.025-0.129-0.049-0.195-0.071c-0.606-0.21-1.245-0.345-1.91-0.393
	c-0.094-0.007-0.187-0.011-0.281-0.014c-0.09-0.003-0.178-0.014-0.268-0.014H96.5c-4.142,0-7.5,3.358-7.5,7.5s3.358,7.5,7.5,7.5
	h374.395v132.608h-22.062c-4.143,0-7.5,3.358-7.5,7.5s3.357,7.5,7.5,7.5h26.423l11.321,11.487H25.423l11.322-11.487h378.923
	c4.143,0,7.5-3.358,7.5-7.5s-3.357-7.5-7.5-7.5H41.105V151.5H64c4.142,0,7.5-3.358,7.5-7.5s-3.358-7.5-7.5-7.5H33.605
	c-0.096,0-0.19,0.011-0.286,0.014c-0.083,0.003-0.164,0.007-0.247,0.012c-0.675,0.048-1.325,0.184-1.939,0.399
	c-0.057,0.02-0.113,0.041-0.169,0.062c-0.631,0.238-1.22,0.556-1.757,0.946c-0.06,0.043-0.119,0.088-0.178,0.133
	c-0.263,0.203-0.516,0.419-0.75,0.655c-0.005,0.005-0.011,0.009-0.016,0.014L2.158,165.222C0.775,166.625,0,168.517,0,170.487V256
	c0,4.142,3.358,7.5,7.5,7.5s7.5-3.358,7.5-7.5v-82.438l11.105-11.268v126.24L15,299.801v-11.926c0-4.142-3.358-7.5-7.5-7.5
	s-7.5,3.358-7.5,7.5l0,0V368c0,4.142,3.358,7.5,7.5,7.5h497c4.143,0,7.5-3.358,7.5-7.5l0,0V170.487
	C512,168.517,511.225,166.625,509.842,165.222z M497,299.801l-11.105-11.268v-126.24L497,173.562V299.801z M497,360.5H15v-34.905
	h482V360.5z"/>
<path d="M312,238.548c6.341,0,11.5-5.159,11.5-11.5v-28c0-6.341-5.159-11.5-11.5-11.5H200c-6.341,0-11.5,5.159-11.5,11.5v28
	c0,6.341,5.159,11.5,11.5,11.5H312z M203.5,202.548h105v21h-105V202.548z"/>
<g>
</g>
<g>
</g>
<g>
</g>
<g>
</g>
<g>
</g>
<g>
</g>
<g>
</g>
<g>
</g>
<g>
</g>
<g>
</g>
<g>
</g>
<g>
</g>
<g>
</g>
<g>
</g>
<g>
</g>
</svg>
